<?xml version="1.0" standalone="no"?><!DOCTYPE svg PUBLIC "-//W3C//DTD SVG 1.1//EN" "http://www.w3.org/Graphics/SVG/1.1/DTD/svg11.dtd"><svg t="1635005356076" class="icon" viewBox="0 0 1024 1024" version="1.1" xmlns="http://www.w3.org/2000/svg" p-id="29144" xmlns:xlink="http://www.w3.org/1999/xlink" width="200" height="200"><defs><style type="text/css"></style></defs><path d="M1.462857 942.811429m0-43.885715l0 0q0-43.885714 43.885714-43.885714l852.114286 0q43.885714 0 43.885714 43.885714l0 0q0 43.885714-43.885714 43.885715l-852.114286 0q-43.885714 0-43.885714-43.885715Z" p-id="29145" fill="#fdd825"></path><path d="M1.462857 87.771429m0-43.885715l0 0q0-43.885714 43.885714-43.885714l934.765715 0q43.885714 0 43.885714 43.885714l0 0q0 43.885714-43.885714 43.885715l-934.765715 0q-43.885714 0-43.885714-43.885715Z" p-id="29146" fill="#fdd825"></path><path d="M87.771429 942.811429m-43.885715 0l0 0q-43.885714 0-43.885714-43.885715l0-855.04q0-43.885714 43.885714-43.885714l0 0q43.885714 0 43.885715 43.885714l0 855.04q0 43.885714-43.885715 43.885715Z" p-id="29147" fill="#fdd825"></path><path d="M1018.148571 887.222857l-146.285714-110.445714a14.628571 14.628571 0 0 0-23.405714 11.702857v219.428571a14.628571 14.628571 0 0 0 23.405714 11.702858l146.285714-110.445715a14.628571 14.628571 0 0 0 0-21.942857zM141.165714 590.994286l123.611429-329.874286a66.56 66.56 0 0 1 63.634286-49.737143 73.142857 73.142857 0 0 1 66.56 49.737143L512 590.994286a130.925714 130.925714 0 0 0 5.12 23.405714c0 24.137143-16.091429 35.84-43.154286 35.84a41.691429 41.691429 0 0 1-44.617143-28.525714l-16.822857-57.051429H245.76l-19.017143 57.051429a45.348571 45.348571 0 0 1-45.348571 28.525714 36.571429 36.571429 0 0 1-42.422857-38.034286v-16.822857a6.582857 6.582857 0 0 0 2.194285-4.388571z m187.245715-284.525715l-57.051429 175.542858h114.102857zM547.108571 607.817143V266.24A41.691429 41.691429 0 0 1 591.725714 219.428571h109.714286a146.285714 146.285714 0 0 1 153.6 146.285715 141.897143 141.897143 0 0 1-151.405714 146.285714h-66.56v95.817143a40.228571 40.228571 0 0 1-45.348572 42.422857c-29.988571 0-44.617143-13.897143-44.617143-42.422857z m89.965715-308.662857v128h61.44A59.977143 59.977143 0 0 0 760.685714 365.714286a62.902857 62.902857 0 0 0-62.171428-64.365715zM883.565714 607.817143V261.12a42.422857 42.422857 0 0 1 45.348572-47.542857 43.154286 43.154286 0 0 1 44.617143 47.542857v346.697143a39.497143 39.497143 0 0 1-44.617143 42.422857c-29.988571 0-45.348571-13.897143-45.348572-42.422857z" p-id="29148" fill="#fdd825"></path></svg>