<?xml version="1.0" standalone="no"?><!DOCTYPE svg PUBLIC "-//W3C//DTD SVG 1.1//EN" "http://www.w3.org/Graphics/SVG/1.1/DTD/svg11.dtd"><svg t="1634880916366" class="icon" viewBox="0 0 1024 1024" version="1.1" xmlns="http://www.w3.org/2000/svg" p-id="13480" xmlns:xlink="http://www.w3.org/1999/xlink" width="200" height="200"><defs><style type="text/css"></style></defs><path d="M511.968 73.152q119.424 0 220.288 58.848t159.712 159.712 58.848 220.288q0 143.424-83.712 258.016t-216.288 158.56q-15.424 2.848-22.848-4t-7.424-17.152q0-1.728 0.288-43.712t0.288-76.864q0-55.424-29.728-81.152 32.576-3.424 58.56-10.272t53.728-22.272 46.272-38.016 30.272-60 11.712-86.016q0-68-45.152-117.728 21.152-52-4.576-116.576-16-5.152-46.272 6.272t-52.576 25.152l-21.728 13.728q-53.152-14.848-109.728-14.848t-109.728 14.848q-9.152-6.272-24.288-15.424t-47.712-22.016-48.576-7.712q-25.728 64.576-4.576 116.576-45.152 49.728-45.152 117.728 0 48.576 11.712 85.728t30.016 60 46.016 38.272 53.728 22.272 58.56 10.272q-22.272 20.576-28 58.848-12 5.728-25.728 8.576t-32.576 2.848-37.44-12.288-31.712-35.712q-10.848-18.272-27.712-29.728t-28.288-13.728l-11.424-1.728q-12 0-16.576 2.56t-2.848 6.56 5.152 8 7.424 6.848l4 2.848q12.576 5.728 24.864 21.728t18.016 29.152l5.728 13.152q7.424 21.728 25.152 35.136t38.272 17.152 39.712 4 31.712-2.016l13.152-2.272q0 21.728 0.288 50.56t0.288 31.136q0 10.272-7.424 17.152t-22.848 4q-132.576-44-216.288-158.56t-83.712-258.016q0-119.424 58.848-220.288t159.712-159.712 220.288-58.848zM239.392 703.424q1.728-4-4-6.848-5.728-1.728-7.424 1.152-1.728 4 4 6.848 5.152 3.424 7.424-1.152zM257.12 722.848q4-2.848-1.152-9.152-5.728-5.152-9.152-1.728-4 2.848 1.152 9.152 5.728 5.728 9.152 1.728zM274.272 748.576q5.152-4 0-10.848-4.576-7.424-9.728-3.424-5.152 2.848 0 10.272t9.728 4zM298.272 772.576q4.576-4.576-2.272-10.848-6.848-6.848-11.424-1.728-5.152 4.576 2.272 10.848 6.848 6.848 11.424 1.728zM330.848 786.848q1.728-6.272-7.424-9.152-8.576-2.272-10.848 4t7.424 8.576q8.576 3.424 10.848-3.424zM366.848 789.728q0-7.424-9.728-6.272-9.152 0-9.152 6.272 0 7.424 9.728 6.272 9.152 0 9.152-6.272zM399.968 784q-1.152-6.272-10.272-5.152-9.152 1.728-8 8.576t10.272 4.576 8-8z" p-id="13481" fill="#515151"></path></svg>